name rise30.8019peak61.5557fall86.2505.mot
datacolumns 19
datarows 36
range 1.27833500000000 1.33667400000000
endheader
time	ground_force1_vx	ground_force1_vy	ground_force1_vz	ground_force1_px	ground_force1_py	ground_force1_pz	ground_force2_vx	ground_force2_vy	ground_force2_vz	ground_force2_px	ground_force2_py	ground_force2_pz	ground_torque1_x	ground_torque1_y	ground_torque1_z	ground_torque2_x	ground_torque2_y	ground_torque2_z	
1.27833500000000	45.21915500000000	755.08287399999995	45.30963200000000	0.24699600000000	0.00000000000000	0.10045200000000	0.00000000000000	0.00000000000000	0.00000000000000	0.00000000000000	0.00000000000000	0.00000000000000	0.00000000000000	13.72223100000000	0.00000000000000	0.00000000000000	0.00000000000000	0.00000000000000	
1.28000200000000	44.56860300000000	756.40698799999996	45.48147400000000	0.24596100000000	0.00000000000000	0.10049400000000	0.00000000000000	0.00000000000000	0.00000000000000	0.00000000000000	0.00000000000000	0.00000000000000	0.00000000000000	13.83260500000000	0.00000000000000	0.00000000000000	0.00000000000000	0.00000000000000	
1.28166900000000	43.91656800000000	757.58278900000005	45.64900200000000	0.24492200000000	0.00000000000000	0.10053600000000	0.00000000000000	0.00000000000000	0.00000000000000	0.00000000000000	0.00000000000000	0.00000000000000	0.00000000000000	13.94125700000000	0.00000000000000	0.00000000000000	0.00000000000000	0.00000000000000	
1.28333200000000	43.26328700000000	758.61092599999995	45.81148900000000	0.24388000000000	0.00000000000000	0.10058000000000	0.00000000000000	0.00000000000000	0.00000000000000	0.00000000000000	0.00000000000000	0.00000000000000	0.00000000000000	14.04783300000000	0.00000000000000	0.00000000000000	0.00000000000000	0.00000000000000	
1.28501200000000	42.60898600000000	759.49226999999996	45.96819100000000	0.24283400000000	0.00000000000000	0.10062400000000	0.00000000000000	0.00000000000000	0.00000000000000	0.00000000000000	0.00000000000000	0.00000000000000	0.00000000000000	14.15197200000000	0.00000000000000	0.00000000000000	0.00000000000000	0.00000000000000	
1.28666200000000	41.95389200000000	760.22791900000004	46.11836000000000	0.24178400000000	0.00000000000000	0.10066900000000	0.00000000000000	0.00000000000000	0.00000000000000	0.00000000000000	0.00000000000000	0.00000000000000	0.00000000000000	14.25331200000000	0.00000000000000	0.00000000000000	0.00000000000000	0.00000000000000	
1.28833600000000	41.29822700000000	760.81919600000003	46.26124000000000	0.24072800000000	0.00000000000000	0.10071400000000	0.00000000000000	0.00000000000000	0.00000000000000	0.00000000000000	0.00000000000000	0.00000000000000	0.00000000000000	14.35149400000000	0.00000000000000	0.00000000000000	0.00000000000000	0.00000000000000	
1.28999700000000	40.64221500000000	761.26765399999999	46.39608000000000	0.23966700000000	0.00000000000000	0.10076000000000	0.00000000000000	0.00000000000000	0.00000000000000	0.00000000000000	0.00000000000000	0.00000000000000	0.00000000000000	14.44616000000000	0.00000000000000	0.00000000000000	0.00000000000000	0.00000000000000	
1.29167700000000	39.98608100000000	761.57506999999998	46.52213600000000	0.23859900000000	0.00000000000000	0.10080600000000	0.00000000000000	0.00000000000000	0.00000000000000	0.00000000000000	0.00000000000000	0.00000000000000	0.00000000000000	14.53695900000000	0.00000000000000	0.00000000000000	0.00000000000000	0.00000000000000	
1.29332900000000	39.33005600000000	761.74344499999995	46.63867800000000	0.23752600000000	0.00000000000000	0.10085300000000	0.00000000000000	0.00000000000000	0.00000000000000	0.00000000000000	0.00000000000000	0.00000000000000	0.00000000000000	14.62354500000000	0.00000000000000	0.00000000000000	0.00000000000000	0.00000000000000	
1.29500300000000	38.67437700000000	761.77500399999997	46.74499100000000	0.23644600000000	0.00000000000000	0.10090000000000	0.00000000000000	0.00000000000000	0.00000000000000	0.00000000000000	0.00000000000000	0.00000000000000	0.00000000000000	14.70558600000000	0.00000000000000	0.00000000000000	0.00000000000000	0.00000000000000	
1.29667900000000	38.01928700000000	761.67218600000001	46.84038500000000	0.23536000000000	0.00000000000000	0.10094600000000	0.00000000000000	0.00000000000000	0.00000000000000	0.00000000000000	0.00000000000000	0.00000000000000	0.00000000000000	14.78275900000000	0.00000000000000	0.00000000000000	0.00000000000000	0.00000000000000	
1.29833300000000	37.36504100000000	761.43764799999997	46.92419900000000	0.23426600000000	0.00000000000000	0.10099300000000	0.00000000000000	0.00000000000000	0.00000000000000	0.00000000000000	0.00000000000000	0.00000000000000	0.00000000000000	14.85475700000000	0.00000000000000	0.00000000000000	0.00000000000000	0.00000000000000	
1.30000100000000	36.71190200000000	761.07425100000000	46.99580100000000	0.23316500000000	0.00000000000000	0.10104000000000	0.00000000000000	0.00000000000000	0.00000000000000	0.00000000000000	0.00000000000000	0.00000000000000	0.00000000000000	14.92128700000000	0.00000000000000	0.00000000000000	0.00000000000000	0.00000000000000	
1.30167000000000	36.06014400000000	760.58506199999999	47.05459800000000	0.23205700000000	0.00000000000000	0.10108700000000	0.00000000000000	0.00000000000000	0.00000000000000	0.00000000000000	0.00000000000000	0.00000000000000	0.00000000000000	14.98207500000000	0.00000000000000	0.00000000000000	0.00000000000000	0.00000000000000	
1.30333400000000	35.41005600000000	759.97334200000000	47.10003600000000	0.23094200000000	0.00000000000000	0.10113300000000	0.00000000000000	0.00000000000000	0.00000000000000	0.00000000000000	0.00000000000000	0.00000000000000	0.00000000000000	15.03686700000000	0.00000000000000	0.00000000000000	0.00000000000000	0.00000000000000	
1.30500200000000	34.76193600000000	759.24253699999997	47.13160600000000	0.22982000000000	0.00000000000000	0.10117900000000	0.00000000000000	0.00000000000000	0.00000000000000	0.00000000000000	0.00000000000000	0.00000000000000	0.00000000000000	15.08542900000000	0.00000000000000	0.00000000000000	0.00000000000000	0.00000000000000	
1.30667700000000	34.11609800000000	758.39627800000005	47.14884700000000	0.22869000000000	0.00000000000000	0.10122400000000	0.00000000000000	0.00000000000000	0.00000000000000	0.00000000000000	0.00000000000000	0.00000000000000	0.00000000000000	15.12754900000000	0.00000000000000	0.00000000000000	0.00000000000000	0.00000000000000	
1.30832800000000	33.47286700000000	757.43836099999999	47.15134900000000	0.22755400000000	0.00000000000000	0.10126900000000	0.00000000000000	0.00000000000000	0.00000000000000	0.00000000000000	0.00000000000000	0.00000000000000	0.00000000000000	15.16303900000000	0.00000000000000	0.00000000000000	0.00000000000000	0.00000000000000	
1.30999700000000	32.83258200000000	756.37274700000000	47.13875300000000	0.22641100000000	0.00000000000000	0.10131300000000	0.00000000000000	0.00000000000000	0.00000000000000	0.00000000000000	0.00000000000000	0.00000000000000	0.00000000000000	15.19173700000000	0.00000000000000	0.00000000000000	0.00000000000000	0.00000000000000	
1.31167700000000	32.19559600000000	755.20354599999996	47.11075900000000	0.22526200000000	0.00000000000000	0.10135600000000	0.00000000000000	0.00000000000000	0.00000000000000	0.00000000000000	0.00000000000000	0.00000000000000	0.00000000000000	15.21350300000000	0.00000000000000	0.00000000000000	0.00000000000000	0.00000000000000	
1.31332900000000	31.56227200000000	753.93501100000003	47.06712200000000	0.22410600000000	0.00000000000000	0.10139800000000	0.00000000000000	0.00000000000000	0.00000000000000	0.00000000000000	0.00000000000000	0.00000000000000	0.00000000000000	15.22822600000000	0.00000000000000	0.00000000000000	0.00000000000000	0.00000000000000	
1.31499400000000	30.93298700000000	752.57151999999996	47.00765900000000	0.22294500000000	0.00000000000000	0.10144000000000	0.00000000000000	0.00000000000000	0.00000000000000	0.00000000000000	0.00000000000000	0.00000000000000	0.00000000000000	15.23582000000000	0.00000000000000	0.00000000000000	0.00000000000000	0.00000000000000	
1.31667700000000	30.30812700000000	751.11757499999999	46.93224600000000	0.22177900000000	0.00000000000000	0.10148000000000	0.00000000000000	0.00000000000000	0.00000000000000	0.00000000000000	0.00000000000000	0.00000000000000	0.00000000000000	15.23622700000000	0.00000000000000	0.00000000000000	0.00000000000000	0.00000000000000	
1.31834900000000	29.68809000000000	749.57777899999996	46.84082100000000	0.22060900000000	0.00000000000000	0.10151900000000	0.00000000000000	0.00000000000000	0.00000000000000	0.00000000000000	0.00000000000000	0.00000000000000	0.00000000000000	15.22941400000000	0.00000000000000	0.00000000000000	0.00000000000000	0.00000000000000	
1.32000100000000	29.07328100000000	747.95683299999996	46.73338300000000	0.21943400000000	0.00000000000000	0.10155700000000	0.00000000000000	0.00000000000000	0.00000000000000	0.00000000000000	0.00000000000000	0.00000000000000	0.00000000000000	15.21537800000000	0.00000000000000	0.00000000000000	0.00000000000000	0.00000000000000	
1.32167300000000	28.46411300000000	746.25951799999996	46.60999400000000	0.21825600000000	0.00000000000000	0.10159400000000	0.00000000000000	0.00000000000000	0.00000000000000	0.00000000000000	0.00000000000000	0.00000000000000	0.00000000000000	15.19414000000000	0.00000000000000	0.00000000000000	0.00000000000000	0.00000000000000	
1.32333000000000	27.86100600000000	744.49068799999998	46.47077700000000	0.21707500000000	0.00000000000000	0.10162900000000	0.00000000000000	0.00000000000000	0.00000000000000	0.00000000000000	0.00000000000000	0.00000000000000	0.00000000000000	15.16574900000000	0.00000000000000	0.00000000000000	0.00000000000000	0.00000000000000	
1.32499600000000	27.26438200000000	742.65525200000002	46.31591600000000	0.21589200000000	0.00000000000000	0.10166300000000	0.00000000000000	0.00000000000000	0.00000000000000	0.00000000000000	0.00000000000000	0.00000000000000	0.00000000000000	15.13027900000000	0.00000000000000	0.00000000000000	0.00000000000000	0.00000000000000	
1.32667100000000	26.67466900000000	740.75816399999997	46.14565500000000	0.21470800000000	0.00000000000000	0.10169500000000	0.00000000000000	0.00000000000000	0.00000000000000	0.00000000000000	0.00000000000000	0.00000000000000	0.00000000000000	15.08783000000000	0.00000000000000	0.00000000000000	0.00000000000000	0.00000000000000	
1.32833500000000	26.09229300000000	738.80441199999996	45.96029500000000	0.21352400000000	0.00000000000000	0.10172600000000	0.00000000000000	0.00000000000000	0.00000000000000	0.00000000000000	0.00000000000000	0.00000000000000	0.00000000000000	15.03852500000000	0.00000000000000	0.00000000000000	0.00000000000000	0.00000000000000	
1.33000400000000	25.51768000000000	736.79900299999997	45.76019500000000	0.21234000000000	0.00000000000000	0.10175500000000	0.00000000000000	0.00000000000000	0.00000000000000	0.00000000000000	0.00000000000000	0.00000000000000	0.00000000000000	14.98251400000000	0.00000000000000	0.00000000000000	0.00000000000000	0.00000000000000	
1.33167800000000	24.95125100000000	734.74695099999997	45.54576600000000	0.21115800000000	0.00000000000000	0.10178200000000	0.00000000000000	0.00000000000000	0.00000000000000	0.00000000000000	0.00000000000000	0.00000000000000	0.00000000000000	14.91996600000000	0.00000000000000	0.00000000000000	0.00000000000000	0.00000000000000	
1.33333100000000	24.39342400000000	732.65326600000003	45.31747400000000	0.20997800000000	0.00000000000000	0.10180700000000	0.00000000000000	0.00000000000000	0.00000000000000	0.00000000000000	0.00000000000000	0.00000000000000	0.00000000000000	14.85107100000000	0.00000000000000	0.00000000000000	0.00000000000000	0.00000000000000	
1.33499800000000	23.84460800000000	730.52294300000005	45.07583000000000	0.20880200000000	0.00000000000000	0.10183100000000	0.00000000000000	0.00000000000000	0.00000000000000	0.00000000000000	0.00000000000000	0.00000000000000	0.00000000000000	14.77604300000000	0.00000000000000	0.00000000000000	0.00000000000000	0.00000000000000	
1.33667400000000	23.30520100000000	728.36094700000001	44.82139500000000	0.20762900000000	0.00000000000000	0.10185300000000	0.00000000000000	0.00000000000000	0.00000000000000	0.00000000000000	0.00000000000000	0.00000000000000	0.00000000000000	14.69511200000000	0.00000000000000	0.00000000000000	0.00000000000000	0.00000000000000	
